<svg id="SvgjsSvg1001" width="288" height="288" xmlns="http://www.w3.org/2000/svg" version="1.1" xmlnsXlink="http://www.w3.org/1999/xlink" xmlnsSvgjs="http://svgjs.com/svgjs"><defs id="SvgjsDefs1002"></defs><g id="SvgjsG1008"><svg xmlns="http://www.w3.org/2000/svg" version="1.0" viewBox="0 0 1920 1920" width="288" height="288"><g transform="matrix(.1 0 0 -.1 0 1920)" fill="#ffffff" class="color000 svgShape"><path d="M5447 14654 c-405 -73 -705 -352 -865 -805 -39 -110 -78 -285 -93-419 -16 -145 -6 -416 20 -540 12 -52 21 -97 21 -100 0 -3 -66 -5 -148 -6
-123 -1 -162 -5 -242 -26 -141 -38 -296 -101 -374 -154 -245 -164 -427 -464
-466 -763 -40 -309 92 -627 362 -873 69 -64 109 -112 172 -208 147 -223 340
-521 441 -680 54 -85 101 -159 106 -164 11 -12 -221 526 -446 1034 -154 347
-195 500 -195 724 0 141 19 229 70 334 51 101 152 208 256 271 243 144 658
201 1097 150 49 -6 91 -8 94 -6 9 9 -254 176 -372 237 -64 33 -151 71 -193 84
l-77 24 -8 44 c-17 85 -12 445 7 553 87 487 331 760 766 857 91 20 133 23 305
23 132 0 224 -5 270 -14 399 -80 698 -368 806 -778 15 -54 23 -123 26 -225 l6
-147 -24 -5 c-13 -2 -69 -12 -124 -21 -131 -23 -283 -74 -425 -144 l-115 -56
75 -2 c641 -21 1067 -176 1233 -449 68 -113 82 -170 82 -339 -1 -132 -4 -161
-27 -245 -72 -254 -244 -566 -460 -834 -26 -33 -46 -62 -44 -64 7 -6 168 79
264 139 65 41 92 54 88 42 -3 -10 -21 -88 -41 -173 -19 -85 -50 -218 -68 -295
l-33 -140 -100 -6 c-124 -6 -166 -24 -61 -25 40 0 89 -4 110 -8 65 -12 40 -24
-41 -19 -47 3 -107 0 -152 -8 l-75 -14 60 -2 c119 -5 225 -24 225 -40 0 -11
-6 -14 -22 -9 -13 4 -77 10 -143 13 -120 5 -216 -4 -305 -30 -42 -12 -38 -12
62 -9 101 4 256 -13 351 -39 71 -19 37 -25 -65 -11 -122 16 -373 10 -458 -12
l-55 -14 130 -1 c123 -1 224 -12 393 -42 56 -10 72 -17 70 -29 -2 -8 -12 -14
-23 -13 -11 1 -72 9 -135 18 -291 38 -628 47 -890 24 -423 -37 -785 -155
-1073 -351 -96 -66 -298 -259 -330 -316 -18 -31 -15 -30 83 33 357 232 772
354 1309 386 167 10 229 9 416 -5 343 -26 636 -71 840 -127 38 -10 76 -19 83
-19 11 0 12 114 6 673 l-7 672 54 50 c296 276 439 596 442 990 1 122 -1 136
-32 227 -72 210 -216 383 -426 511 -122 74 -286 123 -453 133 -121 8 -114 -11
-53 164 62 179 84 300 84 465 0 164 -19 252 -82 380 -80 162 -222 295 -416
390 -308 150 -770 229 -1048 179z" fill="#ffffff" class="color000 svgShape"></path><path d="M5444 14096c-430-70-676-332-725-775-13-116-6-131 10-21 34 227 148 434 306 550 159 118 385 180 655 180 199 0 335-28 485-99 118-56 234-145 304-233 66-82 136-223 160-323 19-76 20-78 20-34 1 59-29 178-67 261-43 95-99 173-183 254-118 114-223 172-394 221-80 23-112 26-290 29-133 2-227-1-281-10zM10200 13253c-301-28-479-57-705-115-199-50-409-122-585-200-191-84-470-232-458-243 1-2 62 14 134 35 242 71 494 121 784 157 183 22 758 25 945 5 1204-132 2246-718 2952-1657 389-519 662-1166 759-1800 71-464 55-1006-41-1442-139-626-408-1190-809-1693-111-138-411-445-551-562-560-467-1257-789-1975-912-286-49-414-59-745-60-260 0-337 4-480 22-204 26-523 83-610 108-40 12 1-13 80-48 254-113 614-217 929-267 252-40 336-46 651-45 259 0 337 4 477 22 655 86 1229 291 1777 635 486 305 947 753 1270 1235 414 618 667 1325 736 2056 20 208 20 643 0 847-75 783-374 1563-840 2194-137 185-230 292-424 486-358 358-685 593-1125 810-475 235-966 374-1490 424-141 13-549 19-656 8zM6335 12753c-27-8-53-18-58-22-4-4 41-13 100-20 226-26 513-98 661-166 216-100 349-241 388-409l14-61-4 85c-15 313-302 510-864 595-124 18-172 18-237-2zM4640 12379c-520-54-798-272-815-641-2-51-2-82 1-68 41 224 118 351 278 458 184 123 445 192 785 208l143 7-38 24c-35 21-50 23-154 22-63-1-153-6-200-10z" fill="#ffffff" class="color000 svgShape"></path><path d="M9580 11599c-190-8-395-30-378-40 7-5 69-9 138-9 393-1 941-116 1365-288 528-213 1011-553 1375-968 94-108 225-274 271-344 9-14 20-22 23-19 11 10-147 311-225 429-560 850-1461 1284-2569 1239zM8863 10620c-68-30-95-109-59-178 18-35 44-55 135-102 68-36 87-63 77-105-8-31-48-49-94-40-40 7-98 64-107 104-12 58-23 41-27-40-3-91 2-110 26-86 15 14 21 14 57 1 77-26 147-15 194 32 41 41 51 89 30 142-18 43-45 66-125 107-73 36-100 62-100 96 0 33 23 49 70 49 43 0 85-32 104-80 24-61 36-49 36 35 0 75-5 86-28 63-9-9-20-9-46 0-59 22-99 22-143 2zM10172 10629c-95-20-145-157-89-240 31-46 63-61 114-55l42 6-10-28c-20-52-58-90-114-113-63-26-73-44-17-35 164 29 255 127 256 276 2 127-80 211-182 189zm54-54c12-19 17-50 18-108l1-82-30 0c-25 0-32 5-42 35-7 19-12 59-12 88-1 87 31 119 65 67zM10505 10629c-17-5-46-25-65-44-34-35-35-39-35-110 0-71 2-76 33-107 29-29 38-33 86-32l54 0-11-29c-14-42-68-92-121-112-60-23-59-38 2-29 48 7 122 40 157 71 66 58 104 171 86 255-22 102-100 159-186 137zm61-54c12-19 17-50 18-108l1-82-30 0c-21 0-33 7-42 25-13 26-18 146-7 174 9 24 42 19 60-9zM8316 10621c-3-5 6-12 21-16 16-3 31-12 35-18 12-18 9-356-2-378-6-10-19-19-30-19-10 0-22-4-25-10-4-7 63-10 193-10l200 0 10 72c6 40 8 75 5 78-3 3-7 1-9-5-11-29-46-76-67-90-34-22-122-31-142-15-11 9-15 33-15 91 0 43 4 80 8 83 20 12 58-21 70-62 8-23 18-42 23-42 5 0 9 54 9 120 0 124-11 152-30 80-10-39-33-60-64-60-13 0-16 15-16 85l0 85 58 0c67 0 98-17 118-66 23-54 35-41 32 34l-3 67-187 3c-105 1-189-2-192-7zM9156 10623c-10-11-7-123 4-123 6 0 15 12 21 27 17 46 39 63 81 63l38 0 0-188c0-194-3-212-42-212-10 0-18-4-18-10 0-6 47-10 120-10 73 0 120 4 120 10 0 6-11 10-25 10-39 0-45 32-45 226l0 174 38 0c41 0 74-25 87-67 13-45 26-23 23 40l-3 62-196 2c-108 1-199-1-203-4zM9815 10590c-81-39-83-42-30-44l30-1 3-164c3-174-1-191-44-191-13 0-24-4-24-10 0-6 47-10 120-10 114 0 155 11 90 24l-30 6 0 215c0 250 10 235-115 175zM10835 10594c-72-35-98-60-51-48 51 12 56-4 56-168 0-84-5-158-10-169-7-12-21-19-40-19-17 0-30-4-30-10 0-6 47-10 120-10 73 0 120 4 120 10 0 6-8 10-18 10-39 0-42 17-42 232 0 241 8 228-105 172zM8743 9785c-61-17-155-63-197-98-36-29-31-64 7-52 12 4 40 10 63 12 36 4 44 1 63-22l21-28 0-931c0-906 1-932 20-963 23-38 62-60 131-73 65-12 170 3 216 32 63 38 63 38 63 453l0 375 41 83c88 175 196 303 277 328 35 10 45 10 66-5 14-9 29-28 32-43 10-37-13-147-41-203-49-97-188-247-309-336l-29-21 42-98c259-606 526-946 808-1028 164-48 433-20 571 59 36 21 41 28 32 44-15 28-23 30-67 15-31-11-55-12-100-5-243 40-503 341-803 930-48 95-51 105-35 115 146 86 237 187 286 314 16 41 22 80 23 146 1 80-2 97-27 147-104 211-372 208-592-7-34-33-86-91-116-130l-54-69-5 469c-4 412-7 474-22 500-22 41-56 71-100 90-47 19-193 19-265 0zM5830 9710c-498-28-790-148-892-365-25-55-32-83-36-159-2-52 1-109 7-133 18-67 70-133 131-167 49-27 64-31 135-31 99 0 164 29 209 93 58 83 43 212-29 246-43 21-43 21-101-15-64-41-97-50-135-37-38 13-61 58-61 118 0 60 24 110 79 165 123 124 419 181 454 88 5-14 9-353 9-817 0-870-1-854 60-928 38-45 131-93 225-114 110-24 446-30 563-10 387 67 585 274 585 611 0 167-39 277-137 383-63 67-141 113-236 137-36 10-72 19-80 22-9 2 6 16 39 33 187 103 276 277 242 476-36 211-182 335-457 389-93 18-389 26-574 15zm436-120c129-50 202-237 175-451-16-121-49-196-111-253-45-39-112-66-169-66-10 0-22-13-29-32-6-17-11-32-9-33 1-1 33-10 71-19 148-36 253-116 312-237 127-259 41-616-177-730-57-30-159-32-206-4-66 39-63-2-63 910 0 914-3 876 63 909 37 18 103 21 143 6zM7665 9080c-223-35-359-140-372-289-15-161 110-265 242-201 51 25 75 65 75 124 0 54-19 78-86 106-51 22-57 47-21 81 43 42 107 64 187 64 64 0 82-4 122-27 122-72 131-284 16-372-19-14-104-53-189-87-85-33-183-77-219-96-85-48-164-123-195-187-53-110-51-278 6-394 108-220 433-237 637-32l60 60 7-28c52-211 354-236 526-43 53 59 57 72 34 91-13 11-20 9-43-13-30-29-85-37-99-14-4 6-10 224-13 482l-5 470-32 66c-19 39-52 84-79 109-52 48-163 102-244 119-75 16-242 22-315 11zm226-671c20-20 20-29 17-227-3-205-3-207-31-254-38-64-80-93-139-93-94 0-138 82-138 255 0 113 17 178 63 246 57 84 178 123 228 73z" fill="#ffffff" class="color000 svgShape"></path><path d="M10690 9075c-265-53-483-240-564-485-67-203-54-445 34-621 82-162 223-275 400-320 124-32 281-24 401 20 120 44 205 103 298 205 43 48 43 48 24 68-20 19-20 19-85-30-91-68-144-87-245-86-71 0-90 5-148 33-125 62-229 201-260 348-14 66-14 68 7 83 11 8 141 86 287 172 306 181 351 219 370 309 44 213-215 365-519 304zm98-160c46-39 75-117 76-205 1-54-4-83-15-100-12-19-271-179-320-198-14-6-10 111 7 225 20 138 47 207 99 261 36 36 48 42 83 42 28 0 49-7 70-25zM11585 9080c-67-14-149-48-214-90-56-36-60-41-49-60 15-24 26-25 52-5 29 22 61 18 93-9l28-24 5-584c6-659 0-617 86-658 64-31 188-32 256-2 86 38 82 13 88 551l5 475 55 42c80 62 154 97 216 102 68 6 107-10 130-54 13-23 26-34 41-34 18 0 25 9 38 52 8 28 15 71 15 94 0 54 12 62 45 27 118-124 300-577 510-1273l56-185-80-76c-129-124-275-208-391-226-102-16-137 3-212 116-23 34-33 41-61 41-39 0-68-27-92-84-32-75 6-149 93-183 65-25 260-24 352 1 144 40 315 141 458 270 173 157 370 476 466 752 86 251 125 467 133 739 6 211-2 259-47 283-53 28-185-8-196-54-4-14 5-55 21-101 49-139 46-414-6-628-35-140-123-385-139-385-4 0-19 42-34 93-73 258-203 624-280 791-74 158-126 222-216 265-49 23-67 26-155 25-82-1-113-6-174-29-64-23-75-25-83-12-4 9-28 23-53 32-52 20-106 15-166-15-49-25-158-127-206-193l-38-52-8 45c-15 79-39 134-74 167-56 54-160 74-268 53zM4716 7750c-56-18-96-73-96-132 0-69 41-127 186-267 271-261 569-504 879-716 205-140 257-162 318-134 20 9 33 5 88-28 112-69 443-242 591-310 702-320 1408-520 2135-605l102-12 6-40c4-23 23-74 42-115 61-129 206-249 386-320l77-31 288-6c384-8 951 26 1040 63 104 43 136 101 128 232-3 47-8 140-11 206-16 339-57 726-80 761-39 60-119 78-242 55-163-31-577-72-873-87-104-5-149-12-195-29-89-33-202-92-270-140-78-55-187-171-226-240-25-45-35-54-52-50-12 2-49 7-82 10-743 75-1567 308-2242 635-99 48-240 120-312 160l-131 71 0 44c0 59-16 75-176 174-312 193-622 430-953 729-51 46-113 92-138 103-54 23-146 32-187 19zm5950-1561c47-44 20-126-49-148-68-21-443-62-703-77-158-8-194 7-194 85 0 35 22 66 57 79 15 6 107 16 203 22 173 11 570 57 580 67 12 12 84-7 106-28zm16-263c49-30 34-113-27-147-47-27-404-65-702-76-161-5-185-4-208 11-38 25-51 58-35 95 22 54 45 61 228 71 195 12 449 35 577 54 92 14 136 12 167-8zm23-281c14-13 25-34 25-45 0-37-30-81-66-96-66-28-507-64-772-64-175 0-196 7-208 66-5 26-1 38 23 64 33 37 26 36 438 60 110 7 250 18 310 25 180 21 222 19 250-10zm-12-256c24-11 47-47 47-73 0-21-39-65-72-82-38-20-269-40-611-54-280-11-334-8-372 21-33 27-39 52-20 88 27 54 46 58 360 71 160 7 346 18 415 25 167 16 224 17 253 4z" fill="#ffffff" class="color000 svgShape"></path><path d="M7380 7346 c0 -4 18 -44 41 -88 135 -269 367 -510 633 -657 158 -87
375 -159 581 -193 117 -18 473 -16 610 5 145 22 205 33 212 41 4 3 -65 6 -153
6 -741 0 -1431 295 -1831 784 -83 102 -93 112 -93 102z" fill="#ffffff" class="color000 svgShape"></path></g></svg></g></svg>